<?xml version="1.0" encoding="UTF-8"?>
<svg width="512" height="512" viewBox="0 0 512 512" fill="none" xmlns="http://www.w3.org/2000/svg">
    <path d="M256 0C114.6 0 0 114.6 0 256C0 397.4 114.6 512 256 512C397.4 512 512 397.4 512 256C512 114.6 397.4 0 256 0ZM256 464C141.1 464 48 370.9 48 256C48 141.1 141.1 48 256 48C370.9 48 464 141.1 464 256C464 370.9 370.9 464 256 464Z" fill="#4CAF50"/>
    <path d="M256 96C167.6 96 96 167.6 96 256C96 344.4 167.6 416 256 416C344.4 416 416 344.4 416 256C416 167.6 344.4 96 256 96ZM256 368C185.3 368 144 326.7 144 256C144 185.3 185.3 144 256 144C326.7 144 368 185.3 368 256C368 326.7 326.7 368 256 368Z" fill="#4CAF50"/>
    <path d="M256 192C220.7 192 192 220.7 192 256C192 291.3 220.7 320 256 320C291.3 320 320 291.3 320 256C320 220.7 291.3 192 256 192Z" fill="#4CAF50"/>
</svg> 